<svg xmlns="http://www.w3.org/2000/svg" viewBox="0 0 16 16"><defs><style>.cls-1{fill:#3dcfd3;}</style></defs><g id="Layer_2" data-name="Layer 2"><g id="Layer_1-2" data-name="Layer 1"><rect class="cls-1" width="16" height="16"/><path d="M9.2,5.79a.4.4,0,0,1-.4-.4v-.6H7.2v.6a.41.41,0,0,1-.81,0v-.6A.81.81,0,0,1,7.2,4H8.8a.81.81,0,0,1,.81.81v.6A.4.4,0,0,1,9.2,5.79Z"/><path d="M8.29,9.36A.84.84,0,0,1,8,9.41a.81.81,0,0,1-.31-.06L3.18,7.85v3.06A1.11,1.11,0,0,0,4.29,12h7.42a1.11,1.11,0,0,0,1.11-1.11V7.85Z"/><path d="M12.82,6.29v.92L8.1,8.79H7.9L3.18,7.21V6.29a1.1,1.1,0,0,1,1.11-1.1h7.42A1.1,1.1,0,0,1,12.82,6.29Z"/></g></g></svg>