<svg xmlns="http://www.w3.org/2000/svg" viewBox="0 0 16 16"><defs><style>.cls-1{fill:#3dcfd3;}</style></defs><g id="Layer_2" data-name="Layer 2"><g id="Layer_1-2" data-name="Layer 1"><rect class="cls-1" width="16" height="16"/><path d="M15.61,1.45a1.33,1.33,0,0,0-.94-.39h0a1.33,1.33,0,0,0-.93.37L6.21,8.61a3.13,3.13,0,0,1,1.94,1.47,3.41,3.41,0,0,1,.33.73l7.15-7.48A1.33,1.33,0,0,0,16,2.4,1.36,1.36,0,0,0,15.61,1.45Z"/><path d="M5.52,9.45H5.41A3.13,3.13,0,0,0,3.63,10,7.37,7.37,0,0,0,2.31,11.7,4.23,4.23,0,0,1,0,13c.51,1.34,2.38,1.88,3.62,1.91h.13a4,4,0,0,0,3.71-1.89A2.47,2.47,0,0,0,5.52,9.45Z"/></g></g></svg>