<svg xmlns="http://www.w3.org/2000/svg" viewBox="0 0 90.35 90.35"><defs><style>.cls-1{fill:#3dcfd3;}</style></defs><g id="Layer_2" data-name="Layer 2"><g id="Layer_1-2" data-name="Layer 1"><rect class="cls-1" width="90.35" height="90.35"/><path d="M81.59,13.81a6.4,6.4,0,0,0-4.48-1.88H77a6.4,6.4,0,0,0-4.45,1.78L36.63,48.09a15.12,15.12,0,0,1,9.28,7.06,16.11,16.11,0,0,1,1.56,3.47L81.69,22.83a6.45,6.45,0,0,0-.1-9Z"/><path d="M33.29,52.11h-.54a14.73,14.73,0,0,0-8.5,2.82c-2.95,2.13-4.13,5.18-6.31,8-2.72,3.49-6.91,5.2-11.07,6.36,2.42,6.41,11.42,9,17.32,9.17h.64c6.68,0,14.55-2.49,17.77-9.06C46.13,62.15,41.78,52.46,33.29,52.11Z"/></g></g></svg>