<?xml version="1.0" encoding="utf-8"?>
<!-- Generator: Adobe Illustrator 25.0.0, SVG Export Plug-In . SVG Version: 6.00 Build 0)  -->
<svg version="1.1" id="Layer_1" xmlns="http://www.w3.org/2000/svg" xmlns:xlink="http://www.w3.org/1999/xlink" x="0px" y="0px"
	 viewBox="0 0 311.1 78.3" style="enable-background:new 0 0 311.1 78.3;" xml:space="preserve">
<style type="text/css">
	.st0{fill:#3DCFD3;}
	.st1{fill:#020202;}
	.st2{font-family:'Poppins-Regular';}
	.st3{font-size:47px;}
</style>
<g id="Group_1" transform="translate(-814.98 -7912.39)">
	<g id="Logo" transform="translate(814.98 7912.39)">
		<path id="Layer_14" class="st0" d="M37.1,78.3C16.6,78.3,0,60.8,0,39.1C0,23.4,8.9,9.2,22.6,3.1C41.5-5.3,63.2,4,71.2,24
			c7.9,19.9-0.9,42.9-19.7,51.3C46.9,77.3,42,78.4,37.1,78.3z M37.1,22.1c-8.9,0-16.2,7.7-16.2,17.1s7.2,17.1,16.2,17.1
			s16.2-7.7,16.2-17.1C53.2,29.7,46,22.1,37.1,22.1z"/>
		<text transform="matrix(0.9459 0 0 1 92.0464 55.6094)" class="st1 st2 st3">CREATIVE</text>
	</g>
</g>
</svg>
