<svg xmlns="http://www.w3.org/2000/svg" viewBox="0 0 16 16"><defs><style>.cls-1{fill:#3dcfd3;}</style></defs><g id="Layer_2" data-name="Layer 2"><g id="Layer_1-2" data-name="Layer 1"><rect class="cls-1" width="16" height="16"/><path d="M11.09,1.08H4.91A.93.93,0,0,0,4,2V14a.93.93,0,0,0,.93.93h6.18A.93.93,0,0,0,12,14V2A.93.93,0,0,0,11.09,1.08ZM7,1.75H9a.11.11,0,0,1,.11.11A.11.11,0,0,1,9,2H7a.11.11,0,0,1-.11-.12A.11.11,0,0,1,7,1.75ZM8,14.46A.47.47,0,1,1,8.47,14,.47.47,0,0,1,8,14.46Zm3.37-1.27H4.63V2.56h6.74Z"/></g></g></svg>