<svg xmlns="http://www.w3.org/2000/svg" viewBox="0 0 16 16"><defs><style>.cls-1{fill:#3dcfd3;}</style></defs><g id="Layer_2" data-name="Layer 2"><g id="Layer_1-2" data-name="Layer 1"><rect class="cls-1" width="16" height="16"/><path d="M10,7.35A.23.23,0,0,0,10,7.28L7,5.61a.18.18,0,0,0-.25.07.16.16,0,0,0,0,.09V9.11a.19.19,0,0,0,.09.16.17.17,0,0,0,.19,0l3-1.66A.2.2,0,0,0,10,7.35ZM7.07,8.8V6.09L9.48,7.44Z"/><polygon points="6.14 11.15 6.14 10.78 5.77 10.78 5.77 11.15 3.18 11.15 3.18 11.53 5.77 11.53 5.77 11.9 6.14 11.9 6.14 11.53 12.82 11.53 12.82 11.15 6.14 11.15"/><path d="M8,4.48a3,3,0,1,0,3,3A3,3,0,0,0,8,4.48ZM8,10a2.6,2.6,0,1,1,2.6-2.6A2.6,2.6,0,0,1,8,10Z"/><path d="M13,3.36H3a.56.56,0,0,0-.56.56v8.16a.56.56,0,0,0,.56.56H13a.56.56,0,0,0,.56-.56V3.92A.56.56,0,0,0,13,3.36Zm.18,8.72a.19.19,0,0,1-.18.19H3a.19.19,0,0,1-.18-.19V3.92A.19.19,0,0,1,3,3.73H13a.19.19,0,0,1,.18.19Z"/></g></g></svg>