<?xml version="1.0" encoding="utf-8"?>
<!-- Generator: Adobe Illustrator 25.0.0, SVG Export Plug-In . SVG Version: 6.00 Build 0)  -->
<svg version="1.1" id="Layer_1" xmlns="http://www.w3.org/2000/svg" xmlns:xlink="http://www.w3.org/1999/xlink" x="0px" y="0px"
	 viewBox="0 0 512 512" style="enable-background:new 0 0 512 512;" xml:space="preserve">
<style type="text/css">
	.st0{fill:#FFFFFF;}
</style>
<g>
	<path class="st0" d="M437,75C388.7,26.6,324.4,0,256,0S123.3,26.6,75,75S0,187.6,0,256s26.6,132.7,75,181s112.6,75,181,75
		s132.7-26.6,181-75s75-112.6,75-181S485.4,123.3,437,75L437,75z M434.9,390.7c-15.3-10.4-31.3-19.3-48-26.8
		c7.3-28.6,11.7-59.7,12.8-91.9h79.7C476.3,316.3,460.2,357.1,434.9,390.7z M32.6,272h79.7c1.1,32.2,5.4,63.3,12.8,91.9
		c-16.6,7.5-32.6,16.4-48,26.8C51.8,357.1,35.7,316.3,32.6,272L32.6,272z M77.1,121.3c15.3,10.4,31.3,19.3,48,26.8
		c-7.3,28.6-11.7,59.7-12.8,91.9H32.6C35.7,195.7,51.8,154.9,77.1,121.3z M360.6,78.8c-5.9-11-12.2-20.9-18.9-29.7
		c27.1,11.2,51.5,27.7,72,48c-11.6,7.6-23.7,14.4-36.2,20.2C372.6,103.6,367,90.7,360.6,78.8z M347.7,129.2
		c-29.2,9.8-60,14.8-91.7,14.8s-62.5-5-91.7-14.8C184.8,70.9,218.6,32,256,32S327.2,70.9,347.7,129.2L347.7,129.2z M144.3,240
		c1.1-28.3,4.9-55.4,10.9-80.1c32.1,10.6,66,16.1,100.8,16.1s68.6-5.5,100.8-16.1c6.1,24.7,9.9,51.8,10.9,80.1H144.3z M367.7,272
		c-1.1,28.3-4.9,55.4-10.9,80.1c-32.1-10.6-66-16.1-100.8-16.1s-68.6,5.5-100.8,16.1c-6.1-24.7-9.9-51.8-10.9-80.1H367.7z
		 M151.4,78.8c-6.4,11.9-12,24.8-16.9,38.5C122,111.4,110,104.7,98.3,97c20.5-20.3,44.9-36.7,72-48
		C163.6,57.9,157.2,67.8,151.4,78.8z M134.5,394.8c4.9,13.7,10.5,26.5,16.9,38.5c5.9,11,12.2,20.9,18.9,29.7
		c-27.1-11.2-51.5-27.7-72-48C110,407.3,122,400.6,134.5,394.8L134.5,394.8z M164.3,382.8c29.2-9.8,60-14.8,91.7-14.8
		s62.4,5,91.7,14.8C327.2,441.1,293.4,480,256,480S184.8,441.1,164.3,382.8L164.3,382.8z M360.6,433.2c6.4-11.9,12-24.8,16.9-38.5
		c12.5,5.8,24.5,12.5,36.2,20.2c-20.5,20.3-44.9,36.7-72,48C348.4,454.1,354.8,444.2,360.6,433.2z M399.7,240
		c-1.1-32.2-5.4-63.2-12.8-91.9c16.6-7.5,32.6-16.4,48-26.8c25.3,33.5,41.4,74.3,44.5,118.7H399.7z"/>
</g>
</svg>
